<?xml version="1.0" standalone="no"?><!DOCTYPE svg PUBLIC "-//W3C//DTD SVG 1.1//EN" "http://www.w3.org/Graphics/SVG/1.1/DTD/svg11.dtd"><svg t="1508833104100" class="icon" style="" viewBox="0 0 1024 1024" version="1.1" xmlns="http://www.w3.org/2000/svg" p-id="955" xmlns:xlink="http://www.w3.org/1999/xlink" width="200" height="200"><defs><style type="text/css"></style></defs><path d="M695.34304 216.672834c13.37108 0 26.74216-5.849847 35.099085-15.878158-5.014155 1.671385-10.02831 2.507077-15.042465 2.507078-21.728005 0-39.277547-17.549542-39.277547-39.277547s17.549542-39.277547 39.277547-39.277547c-24.235082-10.864002-52.648627-0.835692-63.51263 23.399389s-0.835692 52.648627 23.39939 63.51263c6.68554 3.34277 13.37108 5.014155 20.05662 5.014155z m4.178462-67.691092c0 5.849847 5.014155 10.864002 10.864003 10.864002s10.864002-5.014155 10.864002-10.864002c0-5.849847-5.014155-10.864002-10.864002-10.864003-5.849847 0-10.864002 5.014155-10.864003 10.864003z m273.271445 549.885659s-3.34277-63.512629-66.855399-63.512629c-37.606162 0-67.691092 30.08493-67.691092 67.691092v13.37108c0 110.311409-89.419097 200.566198-200.566198 200.566198-96.940329 2.507077-181.345271-66.019707-198.894813-161.288651 0.835692 3.34277-16.71385-51.812934 6.68554-139.560646 2.507077-10.864002 6.68554-14.206772 4.178462-18.385235-0.835692-1.671385-6.68554 4.178462-6.685539 4.178462-48.470165 78.555094-29.249237 175.495423-30.08493 169.645576 17.549542 105.297254 91.090482 189.702196 202.237583 219.787125 5.014155 1.671385 10.02831 2.507077 15.042465 3.34277-5.849847 0-11.699695 0.835692-17.549543 0.835693-164.631421 0-295.835142-126.189566-295.835142-290.820987 0-106.968639 66.855399-212.265893 149.588956-254.88621 5.849847-2.507077 12.535387-4.178462 19.220928-5.014155 14.206772 3.34277 22.563697 5.849847 24.235082 24.235082 2.507077 25.070775-8.356925 40.948932-26.74216 61.005552-7.521232 7.521232-12.535387 14.206772-12.535387 14.206772-2.507077 7.521232 11.699695 7.521232 11.699695 7.521233 22.563697 0.835692 45.127395-4.178462 66.019706-14.206773 30.08493-15.878157 55.991397-38.441855 76.048017-66.019706 26.74216-35.099085 30.08493-84.404942 28.413545-110.311409 0-5.849847 4.178462-11.699695 14.206772-15.878158 27.577852-11.699695 49.305857-19.220927 60.16986-23.399389 30.920622-10.02831 66.019707-18.385235 89.419096-28.413545-10.02831-1.671385-20.892312-4.178462-30.920622-7.521233-35.099085-13.37108-41.784625-30.08493-41.784624-30.084929h5.849847c21.728005 10.864002 45.963087 16.71385 70.198169 17.549542 49.305857 0.835692 70.198169-10.864002 75.212324-13.37108 35.934777-18.385235 57.662782-48.470165 38.441855-83.569249-10.864002-20.892312-44.291702-25.906467-59.334167-25.906467-33.4277-0.835692-35.099085 2.507077-34.263392-18.385235 0 1.671385-1.671385-85.240634-100.283099-118.668334 3.34277 0.835692-123.682489-58.498474-311.713299 64.348322-41.784625 27.577852-80.226479 58.498474-114.489872 94.433252-30.920622-6.68554-76.883709-21.728005-148.753263-0.835693-85.240634 25.070775-108.640024 85.240634-108.640024 85.240634s-10.864002 30.920622-2.507078 33.4277c16.71385 5.849847 61.005552-30.08493 99.447407-15.878157 20.892312 5.849847 33.4277 27.577852 27.577852 48.470164-0.835692 2.507077-1.671385 5.014155-2.507077 6.68554-36.77047 68.526784-56.827089 145.410494-59.334167 223.129895-4.178462 241.51513 189.702196 466.31641 467.987795 471.330566 59.334167 0.835692 118.668334-9.192617 173.824038-30.08493 10.864002-4.178462 20.892312-8.356925 30.08493-13.37108 109.475716-40.948932 182.180963-146.246186 182.180963-263.243135 0.835692-5.849847 0-12.535387 0-18.385235zM695.34304 104.69004c35.099085 0 63.512629 28.413545 63.512629 63.512629s-28.413545 63.512629-63.512629 63.51263c-35.099085 0-63.512629-28.413545-63.512629-63.51263 0-35.099085 28.413545-63.512629 63.512629-63.512629z m-77.719402 762.987245c-22.563697 3.34277-45.127395 3.34277-66.855399 1.671385 43.45601 25.070775 98.611714 23.39939 148.753263 7.521232 69.362477-21.728005 111.147101-100.283099 112.818487-142.067724 0.835692-30.920622-1.671385-65.184014 19.220927-90.254789 15.042465-18.385235 35.934777-30.920622 59.334167-36.770469l-1.671385-7.521233s-15.042465-61.841244-77.719402-50.141549c-36.77047 6.68554-61.005552 41.784625-54.320012 78.555094 0.835692 2.507077 1.671385 9.192617 2.507078 12.535387 20.892312 109.475716-36.77047 206.416045-142.067724 226.472666z" p-id="956" fill="#1296db"></path></svg>